<mxfile host="app.diagrams.net" agent="Mozilla/5.0 (Windows NT 10.0; Win64; x64) AppleWebKit/537.36 (KHTML, like Gecko) Chrome/138.0.0.0 Safari/537.36" version="28.1.0">
  <diagram name="Page-1" id="b3Y0BO1jUp5uKVAhNld2">
    <mxGraphModel dx="1246" dy="676" grid="1" gridSize="10" guides="1" tooltips="1" connect="1" arrows="1" fold="1" page="1" pageScale="1" pageWidth="850" pageHeight="1100" math="0" shadow="0">
      <root>
        <mxCell id="0" />
        <mxCell id="1" parent="0" />
        <mxCell id="ddx9YQKuBUn9CStsunzk-1" value="&lt;font style=&quot;font-size: 25px;&quot;&gt;Start&lt;/font&gt;" style="ellipse;whiteSpace=wrap;html=1;" vertex="1" parent="1">
          <mxGeometry x="350" y="40" width="120" height="80" as="geometry" />
        </mxCell>
        <mxCell id="ddx9YQKuBUn9CStsunzk-2" value="" style="endArrow=classic;html=1;rounded=0;" edge="1" parent="1" source="ddx9YQKuBUn9CStsunzk-1">
          <mxGeometry width="50" height="50" relative="1" as="geometry">
            <mxPoint x="370" y="190" as="sourcePoint" />
            <mxPoint x="410" y="210" as="targetPoint" />
          </mxGeometry>
        </mxCell>
        <mxCell id="ddx9YQKuBUn9CStsunzk-4" value="&lt;font style=&quot;font-size: 22px;&quot;&gt;Initialize x &amp;lt; 0&lt;/font&gt;" style="rounded=0;whiteSpace=wrap;html=1;" vertex="1" parent="1">
          <mxGeometry x="310" y="210" width="200" height="60" as="geometry" />
        </mxCell>
        <mxCell id="ddx9YQKuBUn9CStsunzk-5" value="" style="endArrow=classic;html=1;rounded=0;" edge="1" parent="1">
          <mxGeometry width="50" height="50" relative="1" as="geometry">
            <mxPoint x="409.29" y="270" as="sourcePoint" />
            <mxPoint x="409.29" y="360" as="targetPoint" />
            <Array as="points">
              <mxPoint x="409.29" y="320" />
            </Array>
          </mxGeometry>
        </mxCell>
        <mxCell id="ddx9YQKuBUn9CStsunzk-6" value="&lt;span style=&quot;font-size: 25px;&quot;&gt;Increment X by 1&lt;/span&gt;" style="rounded=0;whiteSpace=wrap;html=1;" vertex="1" parent="1">
          <mxGeometry x="310" y="360" width="200" height="60" as="geometry" />
        </mxCell>
        <mxCell id="ddx9YQKuBUn9CStsunzk-7" value="&lt;span style=&quot;font-size: 25px;&quot;&gt;Print X&lt;/span&gt;" style="shape=parallelogram;perimeter=parallelogramPerimeter;whiteSpace=wrap;html=1;fixedSize=1;" vertex="1" parent="1">
          <mxGeometry x="340" y="510" width="140" height="60" as="geometry" />
        </mxCell>
        <mxCell id="ddx9YQKuBUn9CStsunzk-8" value="" style="endArrow=classic;html=1;rounded=0;" edge="1" parent="1">
          <mxGeometry width="50" height="50" relative="1" as="geometry">
            <mxPoint x="409.29" y="420" as="sourcePoint" />
            <mxPoint x="409.29" y="510" as="targetPoint" />
          </mxGeometry>
        </mxCell>
        <mxCell id="ddx9YQKuBUn9CStsunzk-9" value="" style="endArrow=classic;html=1;rounded=0;" edge="1" parent="1">
          <mxGeometry width="50" height="50" relative="1" as="geometry">
            <mxPoint x="409.29" y="570" as="sourcePoint" />
            <mxPoint x="409.29" y="660" as="targetPoint" />
          </mxGeometry>
        </mxCell>
        <mxCell id="ddx9YQKuBUn9CStsunzk-10" value="&lt;span style=&quot;font-size: 25px;&quot;&gt;X &amp;lt; 20&lt;/span&gt;" style="rhombus;whiteSpace=wrap;html=1;" vertex="1" parent="1">
          <mxGeometry x="350" y="660" width="120" height="80" as="geometry" />
        </mxCell>
        <mxCell id="ddx9YQKuBUn9CStsunzk-11" value="" style="endArrow=none;html=1;rounded=0;" edge="1" parent="1">
          <mxGeometry width="50" height="50" relative="1" as="geometry">
            <mxPoint x="240" y="700" as="sourcePoint" />
            <mxPoint x="360" y="700" as="targetPoint" />
          </mxGeometry>
        </mxCell>
        <mxCell id="ddx9YQKuBUn9CStsunzk-12" value="" style="endArrow=none;html=1;rounded=0;" edge="1" parent="1">
          <mxGeometry width="50" height="50" relative="1" as="geometry">
            <mxPoint x="240" y="400" as="sourcePoint" />
            <mxPoint x="240" y="699.29" as="targetPoint" />
          </mxGeometry>
        </mxCell>
        <mxCell id="ddx9YQKuBUn9CStsunzk-13" value="" style="endArrow=classic;html=1;rounded=0;" edge="1" parent="1">
          <mxGeometry width="50" height="50" relative="1" as="geometry">
            <mxPoint x="240" y="400" as="sourcePoint" />
            <mxPoint x="310" y="400" as="targetPoint" />
          </mxGeometry>
        </mxCell>
        <mxCell id="ddx9YQKuBUn9CStsunzk-14" value="" style="endArrow=classic;html=1;rounded=0;exitX=0.5;exitY=1;exitDx=0;exitDy=0;" edge="1" parent="1" source="ddx9YQKuBUn9CStsunzk-10">
          <mxGeometry width="50" height="50" relative="1" as="geometry">
            <mxPoint x="400" y="850" as="sourcePoint" />
            <mxPoint x="410" y="810" as="targetPoint" />
          </mxGeometry>
        </mxCell>
        <mxCell id="ddx9YQKuBUn9CStsunzk-15" value="&lt;font style=&quot;font-size: 30px;&quot;&gt;END&lt;/font&gt;" style="ellipse;whiteSpace=wrap;html=1;" vertex="1" parent="1">
          <mxGeometry x="350" y="810" width="120" height="80" as="geometry" />
        </mxCell>
        <mxCell id="ddx9YQKuBUn9CStsunzk-16" value="&lt;font style=&quot;font-size: 24px;&quot;&gt;YES&lt;/font&gt;" style="text;html=1;align=center;verticalAlign=middle;resizable=0;points=[];autosize=1;strokeColor=none;fillColor=none;" vertex="1" parent="1">
          <mxGeometry x="260" y="660" width="70" height="40" as="geometry" />
        </mxCell>
        <mxCell id="ddx9YQKuBUn9CStsunzk-17" value="&lt;font style=&quot;font-size: 22px;&quot;&gt;NO&lt;/font&gt;" style="text;html=1;align=center;verticalAlign=middle;resizable=0;points=[];autosize=1;strokeColor=none;fillColor=none;" vertex="1" parent="1">
          <mxGeometry x="410" y="753" width="60" height="40" as="geometry" />
        </mxCell>
      </root>
    </mxGraphModel>
  </diagram>
</mxfile>
